<svg xmlns="http://www.w3.org/2000/svg" xmlns:xlink="http://www.w3.org/1999/xlink" width="500" zoomAndPan="magnify" viewBox="0 0 375 374.999991" height="500" preserveAspectRatio="xMidYMid meet" version="1.0"><defs><clipPath id="eaa34ead93"><path d="M 65.871094 289.433594 L 258 289.433594 L 258 338.539062 L 65.871094 338.539062 Z M 65.871094 289.433594 " clip-rule="nonzero"/></clipPath><clipPath id="cb8fc03851"><path d="M 65.871094 36.289062 L 309.414062 36.289062 L 309.414062 338.183594 L 65.871094 338.183594 Z M 65.871094 36.289062 " clip-rule="nonzero"/></clipPath></defs><g clipPath="url(#eaa34ead93)"><path fill="#000000" d="M 257.992188 291.035156 C 244.160156 291.007812 236.601562 295.8125 229.671875 300.210938 C 221.511719 305.394531 214.191406 310.042969 199.035156 306.21875 C 198.71875 306.136719 197.800781 305.84375 196.417969 305.398438 C 188.660156 302.898438 165.824219 295.535156 152.855469 295.375 C 146.488281 295.296875 144.148438 296.640625 144.125 298.664062 C 144.070312 303.117188 152.941406 310.902344 158.1875 315.5 L 158.195312 315.5 C 159.566406 316.710938 160.699219 317.703125 161.414062 318.417969 C 166.410156 323.417969 168.09375 328.144531 167.5 331.589844 C 167.175781 333.464844 166.203125 334.964844 164.726562 335.964844 C 163.289062 336.929688 161.394531 337.40625 159.179688 337.253906 C 153.699219 336.871094 146.078125 332.5625 138.769531 322.148438 C 136.417969 318.804688 134.121094 315.539062 131.683594 313.34375 C 129.394531 311.277344 126.960938 310.140625 124.199219 310.820312 C 119.835938 311.882812 119.210938 315.953125 118.527344 320.441406 C 117.769531 325.402344 116.945312 330.820312 111.484375 334.050781 C 106.523438 336.988281 102.371094 336.242188 98.085938 335.472656 C 94.875 334.898438 91.582031 334.308594 87.878906 335.4375 C 84.152344 336.582031 80.273438 337.617188 76.328125 338.15625 C 72.875 338.628906 69.371094 338.710938 65.871094 338.140625 L 67.007812 336.433594 C 70.03125 336.828125 73.070312 336.726562 76.078125 336.316406 C 79.910156 335.792969 83.695312 334.777344 87.339844 333.664062 C 91.464844 332.402344 94.984375 333.035156 98.414062 333.648438 C 102.347656 334.355469 106.164062 335.039062 110.535156 332.453125 C 115.234375 329.671875 115.988281 324.707031 116.683594 320.167969 C 117.464844 315.03125 118.175781 310.371094 123.761719 309.011719 C 127.234375 308.164062 130.199219 309.5 132.933594 311.964844 C 135.523438 314.304688 137.882812 317.65625 140.292969 321.085938 C 147.230469 330.972656 154.292969 335.050781 159.304688 335.394531 C 161.089844 335.523438 162.585938 335.160156 163.683594 334.421875 C 164.734375 333.710938 165.429688 332.628906 165.664062 331.277344 C 166.164062 328.367188 164.617188 324.25 160.097656 319.726562 C 159.46875 319.101562 158.339844 318.105469 156.960938 316.898438 L 156.964844 316.898438 C 151.476562 312.085938 142.199219 303.945312 142.265625 298.644531 C 142.304688 295.511719 145.144531 293.425781 152.875 293.519531 C 166.132812 293.683594 189.160156 301.109375 196.984375 303.628906 C 198.3125 304.054688 199.191406 304.339844 199.488281 304.414062 C 213.875 308.046875 220.875 303.601562 228.675781 298.648438 C 233.074219 295.851562 237.722656 292.902344 243.992188 291.050781 C 248.644531 289.683594 254.796875 289.285156 257.992188 291.035156 " fill-opacity="1" fill-rule="nonzero"/></g><g clipPath="url(#cb8fc03851)"><path fill="#000000" d="M 86.453125 307.226562 C 78.324219 298.496094 83.082031 279.398438 86.003906 268.351562 C 90.03125 254.21875 94.835938 241.539062 99.949219 232.011719 C 108.167969 227.070312 141.65625 213.960938 165.878906 172.132812 L 137.144531 184.988281 C 172.558594 161.6875 196.4375 117.746094 240.628906 93.988281 C 240.628906 93.988281 210.683594 95.394531 194.78125 106.496094 C 194.78125 106.496094 213.371094 90.726562 260.320312 83.84375 L 242.777344 75.171875 L 266.699219 78.28125 C 266.699219 78.28125 278.335938 50.242188 309.414062 39.957031 C 309.414062 39.957031 198.96875 14.253906 161.898438 98.953125 C 161.898438 98.953125 168.554688 77.972656 178.75 59.890625 C 178.75 59.890625 126.820312 70.960938 101.898438 141.785156 C 101.898438 141.785156 107.875 112.71875 114.210938 99.761719 C 114.210938 99.761719 82.296875 128.246094 83.640625 184.683594 C 83.640625 184.683594 76.257812 165.667969 78.222656 149.832031 C 78.222656 149.832031 52.503906 184.777344 84.390625 224.59375 C 88.5625 215.304688 129.1875 120.859375 191.8125 88.535156 C 117.046875 143.734375 75.605469 247.46875 65.871094 338.140625 L 86.453125 307.226562 " fill-opacity="1" fill-rule="evenodd"/></g></svg>